# xmcd
#
# Track frame offsets:
#	150
#	13955
#	24381
#	39219
#	54749
#	67322
#	78422
#	93506
#	108496
#	123110
#	137930
#	150110
#	161557
#	173653
#	186285
#	197428
#	208567
#	231064
#	241113
#	257991
#
# Disc length: 3647 seconds
#
# Revision: 1
# Processed by: cddbd v1.4PL0 Copyright (c) Steve Scherf et al.
# Submitted via: audiograbber 1.81.02
#
DISCID=070e3d14
DTITLE=multiple - 100% Hits Soul cd2
DYEAR=1900
DGENRE=Soul
TTITLE0=Curtis Mayfield - Pusherman
TTITLE1=The Bar Kays - Soul finger
TTITLE2=Ben E. King - Supernatural thing
TTITLE3=Joe Tex - Ain't gonna bump no more
TTITLE4=Fontella Bass - Rescue me
TTITLE5=Jean Kinght - Mr big stuff
TTITLE6=William De Vaughan - Be thankful for what you got
TTITLE7=Rufus Thomas - Do the funky chicken
TTITLE8=Joe Simon - Drowning in the sea of love
TTITLE9=Clarence Carter - Patches
TTITLE10=Brook Benton and Dinah Washington - Baby you got what it takes
TTITLE11=The Foundations - Baby now that it takes
TTITLE12=The Impressions - For your precious love
TTITLE13=Lee Dorsey - Ride your pony
TTITLE14=Solomon Burke - If you need me
TTITLE15=Ann Peebles - I can't stand the rain
TTITLE16=The Chi Lites - Have you seen her
TTITLE17=Brenton Wood - Gimme little sign
TTITLE18=Betty Wright - Tonight is the night
TTITLE19=Dobie Gray - Drift away
EXTD=
EXTT0=
EXTT1=
EXTT2=
EXTT3=
EXTT4=
EXTT5=
EXTT6=
EXTT7=
EXTT8=
EXTT9=
EXTT10=
EXTT11=
EXTT12=
EXTT13=
EXTT14=
EXTT15=
EXTT16=
EXTT17=
EXTT18=
EXTT19=
PLAYORDER=
